<?xml version="1.0" encoding="utf-8"?>
<!-- Generator: Adobe Illustrator 25.2.0, SVG Export Plug-In . SVG Version: 6.00 Build 0)  -->
<svg version="1.1" id="Layer_1" xmlns="http://www.w3.org/2000/svg" xmlns:xlink="http://www.w3.org/1999/xlink" x="0px" y="0px"
	 viewBox="0 0 512 512" style="enable-background:new 0 0 512 512;" xml:space="preserve">
<style type="text/css">
	.st0{fill:#8D5E2A;}
	.st1{fill:#FFFFFF;}
</style>
<g>
	<path class="st0" d="M437.8,300.1c31,0,56.2-25.2,56.2-56.2v-26.8h-35.6c-10.9,0-21.5,3.2-30.6,9.1c-1-5.6-2.3-11.1-3.8-16.5
		l10.7-6.2c13-7.5,22.3-19.6,26.2-34.1c3.9-14.5,1.9-29.6-5.6-42.6l-13.4-23.2L411,121.3c-9.5,5.5-17,13.5-21.9,23.2
		c-3.9-4.5-8-8.9-12.4-13.1l5.2-9c7.5-13,9.5-28.1,5.6-42.6s-13.2-26.6-26.2-34.1l-23.2-13.4l-17.8,30.8c-7.5,13-9.5,28.1-5.6,42.6
		s13.2,26.6,26.2,34.1l10,5.8c32.9,27.9,51.8,68.6,51.8,111.9c0,61.7-38.3,114.7-92.4,136.3v42.9c7.5,12.7,19.5,21.9,33.8,25.7
		c4.8,1.3,9.8,1.9,14.6,1.9c9.7,0,19.3-2.6,28-7.6l23.2-13.4l-17.8-30.8c-5.5-9.5-13.6-17.1-23.2-21.9c4.3-3.7,8.4-7.5,12.4-11.6
		l10.8,6.3c8.7,5,18.3,7.6,28,7.6c4.9,0,9.8-0.6,14.6-1.9c14.5-3.9,26.6-13.2,34.1-26.2l13.4-23.2l-30.8-17.8
		c-9.5-5.5-20.2-8-31-7.4c1.9-5.3,3.5-10.7,4.9-16.2L437.8,300.1z"/>
	<path class="st0" d="M109.3,257.5c0-43.2,18.9-83.9,51.8-111.9l10-5.8c13-7.5,22.3-19.6,26.2-34.1s1.9-29.6-5.6-42.6l-17.8-30.8
		l-23.2,13.4c-26.8,15.5-36.1,49.9-20.6,76.7l5.2,9c-4.4,4.2-8.5,8.5-12.4,13.1c-4.9-9.6-12.4-17.7-21.9-23.2l-30.8-17.8l-13.4,23.2
		c-7.5,13-9.5,28.1-5.6,42.6s13.2,26.6,26.2,34.1l10.7,6.2c-1.5,5.4-2.8,10.9-3.8,16.5c-9.1-5.9-19.6-9.1-30.6-9.1H18.1v26.8
		c0,31,25.2,56.2,56.2,56.2h12.4c1.4,5.5,3,10.9,4.9,16.2c-10.8-0.6-21.6,1.9-31,7.4l-30.8,17.8l13.4,23.2
		c7.5,13,19.6,22.3,34.1,26.2c4.8,1.3,9.7,1.9,14.6,1.9c9.7,0,19.3-2.6,28-7.6l10.8-6.3c3.9,4.1,8.1,7.9,12.4,11.6
		c-9.7,4.9-17.8,12.5-23.2,21.9L102,443.4l23.2,13.4c8.7,5,18.3,7.6,28,7.6c4.9,0,9.8-0.6,14.6-1.9c14.3-3.8,26.3-12.9,33.8-25.7
		v-42.9C147.6,372.2,109.3,319.3,109.3,257.5L109.3,257.5z"/>
	<path class="st0" d="M376.4,257.1c0-66.4-54-120.4-120.4-120.4s-120.4,54-120.4,120.4s54,120.4,120.4,120.4
		S376.4,323.5,376.4,257.1z"/>
	<path class="st0" d="M282.4,397.5c-8.5,1.8-17.3,2.8-26.4,2.8s-17.9-1-26.4-2.8v101.3l26.4-9.1l26.4,9.1V397.5L282.4,397.5z"/>
</g>
<path class="st1" d="M206.9,291.8h52c3.3,0,5.5-0.6,6.4-1.9c1-1.2,1.5-2.7,1.5-4.4v-5.6c0-1.7-0.5-3.1-1.5-4.3
	c-1-1.2-3.1-1.8-6.4-1.8h-35.2c-2.6,0-4.5-0.6-5.7-1.8c-1.2-1.2-1.8-3.1-1.8-5.7v-22c0-2.6,0.6-4.5,1.8-5.7c1.2-1.2,3.1-1.8,5.7-1.8
	h21.8c3.3,0,5.5-0.6,6.4-1.9c1-1.2,1.5-2.7,1.5-4.4v-3.1c0-1.7-0.5-3.1-1.5-4.4c-1-1.2-3.1-1.9-6.4-1.9h-38.6
	c-2.6,0-4.5-0.6-5.7-1.8c-1.2-1.2-1.8-3.1-1.8-5.7v-24.7c0-2.6,0.6-4.5,1.8-5.7c1.2-1.2,3.1-1.8,5.7-1.8h57.9c11.5,0,20,2.7,25.6,8
	c5.6,5.3,8.4,12.5,8.4,21.7v12c0,5.3-0.9,9.8-2.7,13.7c-1.8,3.9-5,6.8-9.5,8.7c9.8,1.1,16.6,4.1,20.4,9c3.8,4.9,5.7,11.9,5.7,21
	v20.7c0,10.6-3.4,19-10.2,25.2c-6.8,6.2-16.8,9.2-30.1,9.2h-65.5c-2.6,0-4.5-0.6-5.7-1.8c-1.2-1.2-1.8-3.1-1.8-5.7v-24.3
	c0-2.6,0.6-4.5,1.8-5.7C202.4,292.3,204.3,291.8,206.9,291.8z"/>
</svg>
