<?xml version="1.0" encoding="utf-8"?>
<!-- Generator: Adobe Illustrator 25.2.0, SVG Export Plug-In . SVG Version: 6.00 Build 0)  -->
<svg version="1.1" id="Layer_1" xmlns="http://www.w3.org/2000/svg" xmlns:xlink="http://www.w3.org/1999/xlink" x="0px" y="0px"
	 viewBox="0 0 512 512" style="enable-background:new 0 0 512 512;" xml:space="preserve">
<style type="text/css">
	.st0{fill:#EEA200;}
	.st1{fill:#FFFFFF;}
</style>
<g>
	<path class="st0" d="M437.8,300.1c31,0,56.2-25.2,56.2-56.2v-26.8h-35.6c-10.9,0-21.5,3.2-30.6,9.1c-1-5.6-2.3-11.1-3.8-16.5
		l10.7-6.2c13-7.5,22.3-19.6,26.2-34.1c3.9-14.5,1.9-29.6-5.6-42.6l-13.4-23.2L411,121.3c-9.5,5.5-17,13.5-21.9,23.2
		c-3.9-4.5-8-8.9-12.4-13.1l5.2-9c7.5-13,9.5-28.1,5.6-42.6c-3.9-14.5-13.2-26.6-26.2-34.1l-23.2-13.4l-17.8,30.8
		c-7.5,13-9.5,28.1-5.6,42.6c3.9,14.5,13.2,26.6,26.2,34.1l10,5.8c32.9,27.9,51.8,68.6,51.8,111.9c0,61.7-38.3,114.7-92.4,136.3
		v42.9c7.5,12.7,19.5,21.9,33.8,25.7c4.8,1.3,9.8,1.9,14.6,1.9c9.7,0,19.3-2.6,28-7.6l23.2-13.4l-17.8-30.8
		c-5.5-9.5-13.6-17.1-23.2-21.9c4.3-3.7,8.4-7.5,12.4-11.6l10.8,6.3c8.7,5,18.3,7.6,28,7.6c4.9,0,9.8-0.6,14.6-1.9
		c14.5-3.9,26.6-13.2,34.1-26.2l13.4-23.2l-30.8-17.8c-9.5-5.5-20.2-8-31-7.4c1.9-5.3,3.5-10.7,4.9-16.2L437.8,300.1z"/>
	<path class="st0" d="M109.3,257.5c0-43.2,18.9-83.9,51.8-111.9l10-5.8c13-7.5,22.3-19.6,26.2-34.1c3.9-14.5,1.9-29.6-5.6-42.6
		l-17.8-30.8l-23.2,13.4c-26.8,15.5-36.1,49.9-20.6,76.7l5.2,9c-4.4,4.2-8.5,8.5-12.4,13.1c-4.9-9.6-12.4-17.7-21.9-23.2l-30.8-17.8
		l-13.4,23.2c-7.5,13-9.5,28.1-5.6,42.6s13.2,26.6,26.2,34.1l10.7,6.2c-1.5,5.4-2.8,10.9-3.8,16.5c-9.1-5.9-19.6-9.1-30.6-9.1H18.1
		v26.8c0,31,25.2,56.2,56.2,56.2l12.4,0c1.4,5.5,3,10.9,4.9,16.2c-10.8-0.6-21.6,1.9-31,7.4l-30.8,17.8l13.4,23.2
		c7.5,13,19.6,22.3,34.1,26.2c4.8,1.3,9.7,1.9,14.6,1.9c9.7,0,19.3-2.6,28-7.6l10.8-6.3c3.9,4.1,8.1,7.9,12.4,11.6
		c-9.7,4.9-17.8,12.5-23.2,21.9L102,443.4l23.2,13.4c8.7,5,18.3,7.6,28,7.6c4.9,0,9.8-0.6,14.6-1.9c14.3-3.8,26.3-12.9,33.8-25.7
		v-42.9C147.6,372.2,109.3,319.3,109.3,257.5L109.3,257.5z"/>
	<path class="st0" d="M376.4,257.1c0-66.4-54-120.4-120.4-120.4s-120.4,54-120.4,120.4s54,120.4,120.4,120.4
		C322.4,377.5,376.4,323.5,376.4,257.1z"/>
	<path class="st0" d="M282.4,397.5c-8.5,1.8-17.3,2.8-26.4,2.8c-9.1,0-17.9-1-26.4-2.8v101.3l26.4-9.1l26.4,9.1L282.4,397.5
		L282.4,397.5z"/>
</g>
<path class="st1" d="M301.8,330.6h-91.6c-2.6,0-4.5-0.6-5.7-1.8c-1.2-1.2-1.8-3.1-1.8-5.7v-25.1c0-2.6,0.6-4.5,1.8-5.7
	c1.2-1.2,3.1-1.8,5.7-1.8h23.2v-69.3h-19.1c-2.6,0-4.5-0.6-5.7-1.8c-1.2-1.2-1.8-3.1-1.8-5.7v-25.1c0-2.6,0.6-4.5,1.8-5.7
	c1.2-1.2,3.1-1.8,5.7-1.8h60.1c2.6,0,4.5,0.6,5.7,1.8c1.2,1.2,1.8,3.1,1.8,5.7v101.8h19.9c2.6,0,4.5,0.6,5.7,1.8
	c1.2,1.2,1.8,3.1,1.8,5.7v25.1c0,2.6-0.6,4.5-1.8,5.7C306.4,330.1,304.4,330.6,301.8,330.6z"/>
</svg>
